<svg height="135" viewBox="0 0 377 135" width="377" xmlns="http://www.w3.org/2000/svg"><g fill="none" fill-rule="evenodd"><path d="m0 0h377v135h-377z" fill="#55d49d"/><g fill-rule="nonzero"><path d="m109.787402 96c5.125984 0 8.942913-.7830482 11.450787-2.3491446 2.507874-1.5660965 3.761811-3.4756351 3.761811-5.7286159 0-1.4287195-.261811-2.6788491-.785433-3.7503888s-1.253937-1.9919647-2.190945-2.7612753c-1.433071.7693106-2.935039 1.4561949-4.505905 2.0606532-1.570867.6044583-3.486221.9066874-5.746063.9066874-4.244095 0-7.620079-1.2913426-10.127953-3.874028-2.5078742-2.5826853-3.7618112-6.2643857-3.7618112-11.0451011 0-4.7257646 1.1299212-8.3799896 3.3897642-10.9626749 2.259842-2.5826854 5.511811-3.874028 9.755905-3.874028 2.149606 0 4.037402.3297045 5.663386.9891135s3.155512 1.4561949 4.588583 2.3903577c.937007-.6044583 1.763779-1.4287195 2.480315-2.4727838.716535-1.0440643 1.074803-2.2804562 1.074803-3.7091758 0-2.5826853-1.391733-4.6982892-4.175197-6.3468118-2.783465-1.6485225-6.71063-2.4727838-11.781496-2.4727838-3.582677 0-6.944882.5769829-10.0866144 1.7309487-3.1417323 1.1539658-5.8838583 2.8574391-8.226378 5.1104199s-4.1889763 5.0142561-5.53937 8.2838258-2.0255906 7.0474339-2.0255906 11.3335925c0 4.6158632.7027559 8.586055 2.1082677 11.9105755 1.4055118 3.3245204 3.3208662 6.072058 5.746063 8.2426127 2.4251969 2.1705547 5.2637795 3.7778642 8.515748 4.8219285 3.2519683 1.0440643 6.7244093 1.5660964 10.4173233 1.5660964zm40.712598 0c3.227735 0 6.15458-.4713088 8.780534-1.4139265 2.625955-.9426177 4.882634-2.3288201 6.770039-4.1586073 1.887404-1.8297873 3.350826-4.0892973 4.390267-6.77853 1.03944-2.6892328 1.55916-5.7527402 1.55916-9.1905223 0-3.2159897-.51972-6.1547389-1.55916-8.8162476-1.039441-2.6615087-2.502863-4.9210187-4.390267-6.7785299-1.887405-1.8575113-4.144084-3.2991619-6.770039-4.3249517-2.625954-1.0257898-5.552799-1.5386847-8.780534-1.5386847s-6.15458.4990329-8.780534 1.4970986c-2.625955.9980658-4.882634 2.4258543-6.770039 4.2833656-1.887404 1.8575113-3.350826 4.1170213-4.390267 6.77853-1.03944 2.6615087-1.55916 5.6279819-1.55916 8.8994197 0 3.3268859.51972 6.3210832 1.55916 8.9825919 1.039441 2.6615087 2.502863 4.9210187 4.390267 6.77853 1.887405 1.8575113 4.144084 3.2852998 6.770039 4.2833656 2.625954.9980657 5.552799 1.4970986 8.780534 1.4970986zm.085227-11c-2.386363 0-4.247159-.9063745-5.582386-2.7191235s-2.002841-4.4203187-2.002841-7.8227092c0-3.3466135.653409-5.9262948 1.960227-7.7390438s3.153409-2.7191235 5.539773-2.7191235 4.232955.9063745 5.539773 2.7191235 1.960227 4.3924303 1.960227 7.7390438c0 3.3466136-.639205 5.9402391-1.917614 7.7808765-1.278409 1.8406375-3.110795 2.7609562-5.497159 2.7609562zm49.001599 11c3.273453 0 6.165004-.3998031 8.674651-1.1994092s4.555556-1.723289 6.137725-2.7710487c2.400532-1.544067 3.600798-3.6120138 3.600798-6.2038405v-39.2082718c0-1.3786312-.163673-2.4953225-.491018-3.3500738-.327345-.8547514-.818363-1.5302807-1.473054-2.0265879-.65469-.4963072-1.459414-.8271787-2.414172-.9926145-.954757-.1654357-2.032268-.2481536-3.232534-.2481536-1.254824 0-2.482369.0965042-3.682635.2895126-1.200266.1930083-2.073187.3722304-2.618763.5376661v13.4002955c-.65469-.2757263-1.500332-.5100936-2.536926-.703102-1.036593-.1930083-2.100466-.2895125-3.191617-.2895125-3.000665 0-5.796739.4273757-8.388223 1.282127-2.591484.8547514-4.855622 2.164451-6.792415 3.929099-1.936793 1.7646479-3.450765 3.9842442-4.541916 6.6587887-1.091151 2.6745446-1.636727 5.8316101-1.636727 9.4711965 0 3.3087149.504657 6.272772 1.513972 8.8921713 1.009315 2.6193994 2.482369 4.8665682 4.419162 6.7415067 1.936793 1.8749384 4.310046 3.3087149 7.11976 4.3013294s5.987691 1.4889217 9.533932 1.4889217zm-.055576-11c-2.7625 0-4.875-.882-6.3375-2.646s-2.19375-4.382-2.19375-7.854c0-3.528.785417-6.16 2.35625-7.896s3.81875-2.604 6.74375-2.604c1.516667 0 2.816667.336 3.9 1.008v18.48c-.433333.392-1.042708.742-1.828125 1.05s-1.665625.462-2.640625.462zm48.255635 11c1.912569 0 3.961749-.1663443 6.147541-.4990329 2.185793-.3326886 4.153006-.9703417 5.90164-1.9129594 2.295082-1.2198581 3.442623-3.0773694 3.442623-5.5725338 0-1.108962-.300547-2.1624758-.90164-3.1605416s-1.338798-1.7743391-2.213115-2.3288201c-1.25683.7762734-2.882513 1.4555126-4.877049 2.0377176-1.994535.582205-4.112022.8733075-6.352459.8733075-2.404371 0-4.535519-.4574468-6.393442-1.3723404-1.857924-.9148936-3.087432-2.287234-3.688525-4.1170213l20.245902-3.0773694c1.857923-.2772405 3.306011-.9148936 4.344262-1.9129594s1.557377-2.4397163 1.557377-4.3249516c0-2.5506125-.478142-4.9071567-1.434426-7.0696325-.956284-2.1624759-2.295082-4.0199871-4.016394-5.5725339-1.721311-1.5525467-3.770491-2.7724049-6.147541-3.6595744-2.377049-.8871696-5.013661-1.3307544-7.909836-1.3307544-2.568306 0-5.081967.4019987-7.540983 1.2059961-2.459017.8039975-4.644809 2.0515797-6.557377 3.7427466-1.912569 1.691167-3.456285 3.8536429-4.631148 6.4874275-1.174863 2.6337847-1.762295 5.7804642-1.762295 9.4400387 0 3.7150226.587432 6.9587363 1.762295 9.7311412s2.786885 5.073501 4.836066 6.9032882c2.04918 1.8297872 4.453552 3.2021277 7.213114 4.1170213 2.759563.9148936 5.751367 1.3723404 8.97541 1.3723404zm-9.786885-26c.054581-.8484848.231969-1.6837121.532164-2.5056818s.750487-1.564394 1.350877-2.2272727c.60039-.6628788 1.378168-1.2064394 2.333333-1.6306819.955166-.4242424 2.08772-.6363636 3.397661-.6363636 2.019493 0 3.547758.530303 4.584795 1.5909091s1.637427 2.1212121 1.80117 3.1818182zm41.718475 25c1.259042 0 2.477028-.0826772 3.653959-.2480315s2.039101-.3307087 2.58651-.496063v-28.1929134c.711633-.3307086 1.573803-.6200787 2.586511-.8681102 1.012707-.2480315 2.093841-.4822835 3.243401-.7027559 1.14956-.2204725 2.326491-.3858268 3.530792-.496063s2.381232-.1653543 3.530792-.1653543c.328446-.6062993.60215-1.2814961.821114-2.0255906s.328446-1.5019685.328446-2.273622c0-2.3149607-.766373-3.9822835-2.29912-5.0019685-1.532747-1.0196851-3.612903-1.5295276-6.240469-1.5295276-1.587488 0-3.174976.1240157-4.762464.3720472s-3.120234.5925197-4.59824 1.0334646-2.860215.9507874-4.146628 1.5295276c-1.286412.5787401-2.367546 1.2263779-3.243402 1.9429134-.875855.7165354-1.546432 1.5295275-2.01173 2.4389763-.465298.9094489-.697947 1.9980315-.697947 3.2657481v24.8031496c0 1.3779527.177908 2.4940945.533724 3.3484252.355817.8543307.86217 1.5295275 1.519062 2.0255905.656891.496063 1.464321.8267717 2.422287.992126.957967.1653543 2.039101.2480315 3.243402.2480315zm41.620388 1c6.13744 0 10.78199-1.1875401 13.933649-3.5626204s4.727488-5.6615286 4.727488-9.8593449c0-3.3693-1.119668-6.1172126-3.359005-8.243738-2.239336-2.1265253-6.013033-3.7973667-11.32109-5.0125241l-2.57109-.5799614c-1.548183-.3314066-2.598736-.6904303-3.151659-1.0770713-.552922-.386641-.829383-.8837508-.829383-1.4913295 0-.8837508.49763-1.5327553 1.492891-1.9470135.99526-.4142582 2.405213-.6213873 4.229857-.6213873.884676 0 1.866114.0828517 2.944313.2485549 1.078199.1657033 2.142575.3728324 3.193128.6213873s2.018168.5247271 2.902844.8285164 1.548183.5937701 1.990521.8699422c.718799-.6075787 1.313191-1.367052 1.783175-2.27842.469985-.911368.704977-2.0022479.704977-3.2726397 0-1.3256262-.387046-2.4717406-1.161138-3.438343-.774091-.9666024-1.824644-1.753693-3.151659-2.3612717-1.327014-.6075786-2.88902-1.0632627-4.686018-1.367052-1.796999-.3037893-3.718405-.455684-5.764219-.455684-2.70932 0-5.183649.3037893-7.422985.911368-2.239337.6075787-4.160743 1.4637123-5.764218 2.5684008-1.603476 1.1046885-2.847552 2.4855491-3.732228 4.1425819-.884676 1.6570327-1.327014 3.507386-1.327014 5.5510597 0 3.7559409 1.174961 6.6419396 3.524882 8.6579962 2.349921 2.0160565 5.930094 3.4935773 10.740521 4.4325626l2.488152.4971098c1.548183.2761721 2.654028.6351959 3.317535 1.0770713s.995261 1.0494541.995261 1.822736c0 .8285164-.456161 1.4913295-1.368484 1.9884393-.912322.4971099-2.225513.7456648-3.939573.7456648-2.709321 0-5.100711-.3452152-7.174171-1.0356455-2.073459-.6904303-3.911927-1.4775209-5.515403-2.3612717-.774091.6075787-1.437598 1.367052-1.990521 2.2784201-.552923.911368-.829384 2.0298651-.829384 3.3554913 0 1.436095.400869 2.6788696 1.202607 3.7283237s1.907583 1.9193963 3.317535 2.6098266c1.409953.6904303 3.11019 1.2013487 5.100711 1.5327553 1.990522.3314065 4.14692.4971098 6.469195.4971098z" fill="#7f2a72"/><path d="m57.4918033 53c2.8961748 0 5.5327869.4435848 7.909836 1.3307544 2.3770492.8871695 4.4262296 2.1070277 6.147541 3.6595744 1.7213115 1.5525468 3.0601093 3.410058 4.0163935 5.5725339.9562841 2.1624758 1.4344262 4.51902 1.4344262 7.0696325 0 1.8852353-.5191257 3.3268858-1.557377 4.3249516-1.0382514.9980658-2.4863388 1.6357189-4.3442623 1.9129594l-20.2459017 3.0773694.1001317.2851123c.6321239 1.6878647 1.8282549 2.9651677 3.5883929 3.831909 1.8579235.9148936 3.989071 1.3723404 6.3934426 1.3723404 2.2404372 0 4.3579235-.2911025 6.352459-.8733075 1.9945356-.582205 3.6202186-1.2614442 4.8770492-2.0377176.874317.554481 1.6120219 1.3307543 2.2131148 2.3288201s.9016393 2.0515796.9016393 3.1605416c0 2.4951644-1.147541 4.3526757-3.4426229 5.5725338-1.7486339.9426177-3.715847 1.5802708-5.9016394 1.9129594-2.1857923.3326886-4.2349726.4990329-6.147541.4990329-3.2240437 0-6.2158469-.4574468-8.9754098-1.3723404-2.7595628-.9148936-5.1639344-2.2872341-7.2131147-4.1170213-2.0491804-1.8297872-3.6612022-4.1308833-4.8360656-6.9032882s-1.7622951-6.0161186-1.7622951-9.7311412c0-3.6595745.5874317-6.806254 1.7622951-9.4400387 1.1748634-2.6337846 2.7185792-4.7962605 4.6311475-6.4874275 1.9125683-1.6911669 4.0983607-2.9387491 6.5573771-3.7427466 2.4590164-.8039974 4.9726776-1.2059961 7.5409836-1.2059961zm.1222318 10c-1.3099415 0-2.4424951.2121212-3.3976608.6363636-.9551657.4242425-1.7329435.9678031-2.3333334 1.6306819-.6003898.6628787-1.0506822 1.405303-1.3508772 2.2272727-.3001949.8219697-.4775828 1.657197-.5321637 2.5056818l14-2.2272727-.0417711-.2272728c-.2099694-.9848484-.7964355-1.9696969-1.7593985-2.9545454-1.037037-1.0606061-2.5653021-1.5909091-4.5847953-1.5909091z" fill="#fff"/></g></g></svg>